<mxfile host="app.diagrams.net" agent="Mozilla/5.0 (Windows NT 10.0; Win64; x64) AppleWebKit/537.36 (KHTML, like Gecko) Chrome/127.0.0.0 Safari/537.36" version="24.7.7">
  <diagram name="Page-1" id="wwDIyUo1HZKAlsGIxf07">
    <mxGraphModel dx="1416" dy="761" grid="1" gridSize="10" guides="1" tooltips="1" connect="1" arrows="1" fold="1" page="1" pageScale="1" pageWidth="850" pageHeight="1100" math="0" shadow="0">
      <root>
        <mxCell id="0" />
        <mxCell id="1" parent="0" />
        <mxCell id="m-bqLdBN0owjvYGWmWQs-4" value="" style="edgeStyle=orthogonalEdgeStyle;rounded=0;orthogonalLoop=1;jettySize=auto;html=1;" edge="1" parent="1" source="m-bqLdBN0owjvYGWmWQs-1" target="m-bqLdBN0owjvYGWmWQs-3">
          <mxGeometry relative="1" as="geometry" />
        </mxCell>
        <mxCell id="m-bqLdBN0owjvYGWmWQs-1" value="Siswa" style="rounded=0;whiteSpace=wrap;html=1;" vertex="1" parent="1">
          <mxGeometry x="80" y="200" width="120" height="60" as="geometry" />
        </mxCell>
        <mxCell id="m-bqLdBN0owjvYGWmWQs-6" value="" style="edgeStyle=orthogonalEdgeStyle;rounded=0;orthogonalLoop=1;jettySize=auto;html=1;" edge="1" parent="1" source="m-bqLdBN0owjvYGWmWQs-3" target="m-bqLdBN0owjvYGWmWQs-5">
          <mxGeometry relative="1" as="geometry" />
        </mxCell>
        <mxCell id="m-bqLdBN0owjvYGWmWQs-3" value="Login" style="rounded=0;whiteSpace=wrap;html=1;" vertex="1" parent="1">
          <mxGeometry x="280" y="200" width="120" height="60" as="geometry" />
        </mxCell>
        <mxCell id="m-bqLdBN0owjvYGWmWQs-8" value="" style="edgeStyle=orthogonalEdgeStyle;rounded=0;orthogonalLoop=1;jettySize=auto;html=1;" edge="1" parent="1" source="m-bqLdBN0owjvYGWmWQs-5" target="m-bqLdBN0owjvYGWmWQs-7">
          <mxGeometry relative="1" as="geometry" />
        </mxCell>
        <mxCell id="m-bqLdBN0owjvYGWmWQs-5" value="Melihat Riwayat" style="rounded=0;whiteSpace=wrap;html=1;" vertex="1" parent="1">
          <mxGeometry x="470" y="200" width="120" height="60" as="geometry" />
        </mxCell>
        <mxCell id="m-bqLdBN0owjvYGWmWQs-7" value="Melihat Seluruh Siswa&amp;nbsp;" style="rounded=0;whiteSpace=wrap;html=1;" vertex="1" parent="1">
          <mxGeometry x="680" y="200" width="120" height="60" as="geometry" />
        </mxCell>
        <mxCell id="m-bqLdBN0owjvYGWmWQs-11" value="" style="edgeStyle=orthogonalEdgeStyle;rounded=0;orthogonalLoop=1;jettySize=auto;html=1;" edge="1" parent="1" source="m-bqLdBN0owjvYGWmWQs-9" target="m-bqLdBN0owjvYGWmWQs-10">
          <mxGeometry relative="1" as="geometry" />
        </mxCell>
        <mxCell id="m-bqLdBN0owjvYGWmWQs-9" value="Admin" style="rounded=0;whiteSpace=wrap;html=1;" vertex="1" parent="1">
          <mxGeometry x="80" y="320" width="120" height="60" as="geometry" />
        </mxCell>
        <mxCell id="m-bqLdBN0owjvYGWmWQs-13" value="" style="edgeStyle=orthogonalEdgeStyle;rounded=0;orthogonalLoop=1;jettySize=auto;html=1;" edge="1" parent="1" source="m-bqLdBN0owjvYGWmWQs-10" target="m-bqLdBN0owjvYGWmWQs-12">
          <mxGeometry relative="1" as="geometry" />
        </mxCell>
        <mxCell id="m-bqLdBN0owjvYGWmWQs-10" value="Login" style="rounded=0;whiteSpace=wrap;html=1;" vertex="1" parent="1">
          <mxGeometry x="280" y="320" width="120" height="60" as="geometry" />
        </mxCell>
        <mxCell id="m-bqLdBN0owjvYGWmWQs-15" value="" style="edgeStyle=orthogonalEdgeStyle;rounded=0;orthogonalLoop=1;jettySize=auto;html=1;" edge="1" parent="1" source="m-bqLdBN0owjvYGWmWQs-12" target="m-bqLdBN0owjvYGWmWQs-14">
          <mxGeometry relative="1" as="geometry" />
        </mxCell>
        <mxCell id="m-bqLdBN0owjvYGWmWQs-12" value="Mengisi Kehadiran" style="rounded=0;whiteSpace=wrap;html=1;" vertex="1" parent="1">
          <mxGeometry x="480" y="320" width="120" height="60" as="geometry" />
        </mxCell>
        <mxCell id="m-bqLdBN0owjvYGWmWQs-17" value="" style="edgeStyle=orthogonalEdgeStyle;rounded=0;orthogonalLoop=1;jettySize=auto;html=1;" edge="1" parent="1" source="m-bqLdBN0owjvYGWmWQs-14" target="m-bqLdBN0owjvYGWmWQs-16">
          <mxGeometry relative="1" as="geometry" />
        </mxCell>
        <mxCell id="m-bqLdBN0owjvYGWmWQs-14" value="Melihat Rekapan" style="rounded=0;whiteSpace=wrap;html=1;" vertex="1" parent="1">
          <mxGeometry x="680" y="320" width="120" height="60" as="geometry" />
        </mxCell>
        <mxCell id="m-bqLdBN0owjvYGWmWQs-19" value="" style="edgeStyle=orthogonalEdgeStyle;rounded=0;orthogonalLoop=1;jettySize=auto;html=1;" edge="1" parent="1" source="m-bqLdBN0owjvYGWmWQs-16" target="m-bqLdBN0owjvYGWmWQs-18">
          <mxGeometry relative="1" as="geometry" />
        </mxCell>
        <mxCell id="m-bqLdBN0owjvYGWmWQs-16" value="Menambah Siswa" style="rounded=0;whiteSpace=wrap;html=1;" vertex="1" parent="1">
          <mxGeometry x="680" y="460" width="120" height="60" as="geometry" />
        </mxCell>
        <mxCell id="m-bqLdBN0owjvYGWmWQs-18" value="Melihat Seluruh Siswa" style="rounded=0;whiteSpace=wrap;html=1;" vertex="1" parent="1">
          <mxGeometry x="680" y="600" width="120" height="60" as="geometry" />
        </mxCell>
      </root>
    </mxGraphModel>
  </diagram>
</mxfile>
